<svg xmlns="http://www.w3.org/2000/svg" width="48" height="48"><linearGradient id="A" gradientUnits="userSpaceOnUse" x1="11.474" y1="24.553" x2="35.683" y2="24.553"><stop offset="0" stop-color="#9ae016"/><stop offset="1" stop-color="#128785"/></linearGradient><path fill="url(#A)" d="M15.746 47.938c-1.844-.527 5.458-24.074 4.98-24.7s-8.666 2.457-9.192 1.968 2.633-22.802 3.447-23.52 12.304-.67 12.64 0-6.5 12.926-5.746 13.43 13.145-3.74 13.79-3.055S17.6 48.464 15.746 47.938z"/><linearGradient id="B" gradientUnits="userSpaceOnUse" x1="10.996" y1="24.144" x2="36.204" y2="24.144"><stop offset="0" stop-color="#9ae016"/><stop offset="1" stop-color="#128785"/></linearGradient><path fill="url(#B)" d="M15.734 47.985l-.01-.003c0-.003-.03-.01-.09-.052a.58.58 0 0 1-.166-.293c-.08-.27-.09-.677-.06-1.197.064-1.043.313-2.55.704-4.448l1.582-6.81 2.18-8.794.52-2.47c.03-.196.068-.442.06-.57.034.074.054.11.03.108a1.62 1.62 0 0 0-.269.012c-.402.05-.83.156-1.256.267l-5.306 1.587-1.444.35c-.133.02-.258.043-.43.044a1.07 1.07 0 0 1-.317-.036c-.053-.02-.107-.044-.157-.074.032.078-.218-.218-.187-.197l-.032-.085c-.136-.533-.068-.698-.082-.97l.2-2.99.655-6.096c.512-4.14 1.018-8.368 1.97-12.724.07-.282.13-.545.254-.883l.05-.13.026-.064.078-.136a1.77 1.77 0 0 1 .198-.255c.212-.163.083-.06.142-.104l.044-.027c.076-.046.27-.133.4-.173l.253-.066C15.9.573 16.45.523 17.018.472a53.95 53.95 0 0 1 3.35-.156 76.47 76.47 0 0 1 3.352.008c1.13.04 2.223.06 3.438.252.162.034.32.064.53.133a1.31 1.31 0 0 1 .201.083c.075.045.116.03.33.23.115.18.078-.043.277.49l.006.052s.014.118.01.247c-.003.117-.02.243-.045.347l-.04.13c-.025.087-.053.175-.08.243-.053.15-.108.293-.165.427a34.11 34.11 0 0 1-.702 1.556L26.01 7.5c-.98 1.972-1.984 3.932-2.84 5.883-.206.48-.417 1-.527 1.403-.02.058-.02.09-.026.118-.002.01-.01.044-.008.033.004-.022.002-.047-.006-.07.006.05-.04-.23-.187-.337-.064-.06-.42-.236-.235-.146l.048.016c.067.016-.078-.055-.103-.034.17-.005.434-.046.676-.09 1.008-.19 2.048-.476 3.077-.728l6.134-1.563c1.032-.233 2.003-.488 3.145-.582.158 0 .32-.01.58.052a1.04 1.04 0 0 1 .32.186c.276.394.084.136.148.235l.027.123a1 1 0 0 1-.006.349l-.03.123c-.088.3-.186.536-.286.78a33.93 33.93 0 0 1-.629 1.396c-.866 1.817-1.766 3.554-2.648 5.243l-5.12 9.432-4.45 7.897c-1.346 2.34-2.55 4.36-3.58 6.003s-1.884 2.906-2.53 3.724c-.324.408-.595.706-.81.878a.92.92 0 0 1-.281.16c-.082.004-.126-.002-.126-.002zm.03-.095c-.003-.005.106.035.315-.146.203-.164.47-.46.787-.867.636-.815 1.48-2.084 2.495-3.73 2.03-3.296 4.758-8.112 7.9-13.966l4.94-9.514c.85-1.7 1.716-3.453 2.54-5.27.205-.455.408-.914.593-1.38.092-.233.183-.47.247-.706.018-.13.088-.198-.017-.225a1.61 1.61 0 0 0-.353-.019c-1 .097-2.002.37-3.004.618L26.1 14.358c-1.03.278-2.068.562-3.133.775-.268.048-.535.098-.817.11-.077-.005-.17-.002-.235-.023-.048.016-.196-.126-.18-.205-.02-.168.018-.3.048-.437.14-.538.35-1.04.56-1.545.862-2.007 1.85-3.97 2.816-5.95L26.6 4.1c.232-.5.464-1.003.67-1.512.102-.245.205-.534.252-.747.034-.15-.015-.126-.152-.192-.124-.04-.257-.066-.4-.093-2.173-.305-4.403-.297-6.6-.292-1.1.014-2.2.045-3.3.128-.544.044-1.09.094-1.616.203-.613-.002-.604.67-.775 1.168-.944 4.244-1.53 8.502-2.123 12.605l-.765 6.062c-.105.992-.21 1.975-.253 2.945-.013.24-.01.497.003.7l.03.086c-.02-.007.022.006.028.014.047.008.1.02.157.015.113.001.232-.016.35-.032.47-.072.934-.192 1.393-.312l5.34-1.49c.437-.104.87-.204 1.316-.252.112-.008.224-.017.342-.006s.305.053.296.23c.005.24-.042.446-.077.663-.164.852-.372 1.673-.57 2.48l-2.28 8.77c-.67 2.612-1.226 4.897-1.632 6.8s-.664 3.394-.735 4.425c-.033.513-.024.914.047 1.16.06.246.18.27.2.282z"/></svg>